# xmcd
#
# Track frame offsets:
#	150
#	24082
#	44255
#	61010
#	78795
#	94537
#	113640
#	135790
#	154880
#	176757
#	198850
#	217930
#
# Disc length: 3152 seconds
#
# Revision: 3
# Processed by: cddbd v1.5.2PL0 Copyright (c) Steve Scherf et al.
# Submitted via: audiograbber 1.83.01
#
DISCID=820c4e0c
DTITLE=Migenes, Julia and Michael Kamen - Smile
DYEAR=1994
DGENRE=Pop
TTITLE0=Smile
TTITLE1=If I loved you
TTITLE2=Poor foolish heart
TTITLE3=My funny Valentine
TTITLE4=Brazil
TTITLE5=Manhã de carnaval (A day in the life of a fool)
TTITLE6=Calling you
TTITLE7=As time goes by
TTITLE8=Everything I do
TTITLE9=When you wish upon a star
TTITLE10=Harlem on my mind
TTITLE11=La vie en rose
EXTD=
EXTT0=
EXTT1=
EXTT2=
EXTT3=
EXTT4=
EXTT5=
EXTT6=
EXTT7=
EXTT8=
EXTT9=
EXTT10=
EXTT11=
PLAYORDER=
